# xmcd
#
# Track frame offsets: 
#        150
#        13631
#        24425
#        37423
#        51364
#        64855
#        77586
#        91485
#        101982
#        114314
#        126744
#        138933
#        150986
#        162887
#        174025
#        185926
#        196871
#        209042
#        220845
#        232069
#        242422
#        253354
#        263833
#        273423
#        283699
#        295460
#        307468
#        334706
#
# Disc length: 4656 seconds
#
# Revision: 2
# Processed by: cddbd v1.5.2PL0 Copyright (c) Steve Scherf et al.
# Submitted via: ExactAudioCopyFreeDBPlugin 1.0
#
DISCID=b5122e1c
DTITLE=Various Artist - Gettin' Funky:  The Birth of New Orleans R&B 
DTITLE=[Proper Records]
DYEAR=2001
DGENRE=Rhythm and Blues
TTITLE0=Roy Brown - Good Rockin' Tonight
TTITLE1=Roy Brown - Lolly Pop Mama
TTITLE2=Roy Brown - Special Lesson No. 1
TTITLE3=Roy Brown - Woman's a Wonderful Thing
TTITLE4=Roy Brown - Roy Brown Boogie
TTITLE5=Roy Brown - Miss Fanny Brown
TTITLE6=Roy Brown - Long About Midnight
TTITLE7=Roy Brown - Rainy Weather Blues
TTITLE8=Roy Brown - Rockin' at Midnight
TTITLE9=Roy Brown - Please Don't Go
TTITLE10=Roy Brown - Ridin' High
TTITLE11=Roy Brown - Rock-a-Bye Baby
TTITLE12=Roy Brown - (The Girls In) Big Town
TTITLE13=Fats Domino - Detroit City Blues
TTITLE14=Fats Domino - The Fat Man
TTITLE15=Fats Domino - Hide Away Blues
TTITLE16=Fats Domino - She's My Baby
TTITLE17=Fats Domino - Brand New Baby
TTITLE18=Fats Domino - Little Bee
TTITLE19=Fats Domino - Boogie Woogie Baby
TTITLE20=Fats Domino - Hey, Là Bas Boogie
TTITLE21=Fats Domino - Korea Blues
TTITLE22=Fats Domino - Every Night About This Time
TTITLE23=Fats Domino - Careless Love
TTITLE24=Fats Domino - Hey! Fat Man
TTITLE25=Larry Darnell - For You My Love
TTITLE26=Larry Darnell - I'll Get Along Somehow, Parts 1 and 2
TTITLE27=Larry Darnell - Lost My Baby
EXTD=YEAR: 1947
EXTT0=
EXTT1=
EXTT2=
EXTT3=
EXTT4=
EXTT5=
EXTT6=
EXTT7=
EXTT8=
EXTT9=
EXTT10=
EXTT11=
EXTT12=
EXTT13=
EXTT14=
EXTT15=
EXTT16=
EXTT17=
EXTT18=
EXTT19=
EXTT20=
EXTT21=
EXTT22=
EXTT23=
EXTT24=
EXTT25=
EXTT26=
EXTT27=
PLAYORDER=
